<?xml version="1.0" standalone="no"?>
<!DOCTYPE svg PUBLIC "-//W3C//DTD SVG 20010904//EN"
 "http://www.w3.org/TR/2001/REC-SVG-20010904/DTD/svg10.dtd">
<svg version="1.0" xmlns="http://www.w3.org/2000/svg"
 width="512.000000pt" height="512.000000pt" viewBox="0 0 512.000000 512.000000"
 preserveAspectRatio="xMidYMid meet">
<metadata>
Created by potrace 1.16, written by Peter Selinger 2001-2019
</metadata>
<g transform="translate(0.000000,512.000000) scale(0.100000,-0.100000)"
fill="#000000" stroke="none">
<path d="M210 2745 l0 -2375 1765 0 1765 0 0 139 0 138 58 31 c31 18 71 41 87
51 l31 20 374 -374 c206 -206 379 -375 385 -375 5 0 60 51 122 112 l113 113
-380 380 -380 380 31 45 c69 102 129 246 160 385 21 91 18 351 -4 446 -72 308
-266 569 -530 714 l-67 37 0 676 0 677 -578 578 -577 577 -1188 0 -1187 0 0
-2375z m2130 1520 l0 -535 535 0 535 0 0 -509 0 -510 -123 0 c-188 1 -311 -25
-472 -101 -123 -58 -212 -119 -303 -210 l-70 -70 -771 0 -771 0 0 -165 0 -165
676 0 c639 0 675 -1 670 -17 -29 -93 -48 -197 -53 -290 l-6 -113 -643 0 -644
0 0 -165 0 -165 678 0 678 0 23 -54 c73 -176 224 -356 401 -478 24 -16 -36
-17 -1057 -17 l-1083 -1 0 2050 0 2050 900 0 900 0 0 -535z m585 45 l250 -250
-253 0 -252 0 0 250 c0 138 1 250 3 250 1 0 115 -112 252 -250z m523 -1946
c207 -46 413 -211 506 -407 57 -119 71 -184 70 -337 0 -119 -4 -145 -27 -215
-85 -255 -284 -440 -547 -511 -97 -26 -263 -24 -364 4 -265 75 -456 260 -538
522 -33 108 -33 311 0 420 121 389 504 612 900 524z"/>
<path d="M902 2908 l3 -163 1068 -3 1067 -2 0 165 0 165 -1070 0 -1070 0 2
-162z"/>
</g>
</svg>
